<svg width="59" height="59" viewBox="0 0 59 59" fill="none" xmlns="http://www.w3.org/2000/svg">
<rect width="59" height="59" fill="black"/>
<path d="M15.58 26.5H10.18L4.8 13.1H9.34L12.8 22.7H13.06L16.44 13.1H20.96L15.58 26.5ZM25.1217 26.5H21.3617V13.1H25.1217V26.5ZM30.0827 26.5H26.3227V13.1H30.3227L34.0427 18.12L36.0027 21.2H36.2627L36.0827 18.28V13.1H39.8427V26.5H35.8427L31.8827 21.34L30.1827 18.7H29.9227L30.0827 21.26V26.5ZM13.8 44.5H10.04V34.48H5.3V31.1H18.52V34.48H13.8V44.5ZM31.3281 44.5H19.4281V31.1H31.3281V34.48H23.1881V36.08H31.0281V39.44H23.1881V41.12H31.3281V44.5ZM36.5169 44.5H31.5969L36.6569 37.92V37.66L31.5969 31.1H36.5169L39.7569 35.44H40.0169L43.0769 31.1H47.9969L42.9569 37.74V38L47.9969 44.5H43.0769L39.8569 40.14H39.5969L36.5169 44.5ZM53.273 44.5H48.393V40.66H53.273V44.5Z" fill="white"/>
</svg>
